# Blender v2.79 (sub 0) OBJ File: 'stone4.blend'
# www.blender.org
mtllib stone4.mtl
o texturedMesh.part.section.001
v -0.357679 0.025602 0.432371
v -0.379968 -0.168626 0.241168
v -0.484495 -0.056645 0.078526
v -0.124274 -0.184858 0.464905
v 0.043816 -0.066623 0.556213
v 0.019824 -0.284211 0.347119
v -0.013876 -0.311151 0.116136
v -0.448225 0.153871 0.118023
v -0.410198 0.225344 0.071860
v 0.079933 0.087211 0.503917
v -0.306226 0.204737 0.262737
v -0.007637 0.196192 0.378913
v -0.003051 0.267532 0.196279
v -0.389998 -0.238463 0.013519
v -0.417527 -0.195287 -0.258081
v -0.447415 -0.059468 -0.314485
v -0.169855 -0.289280 -0.276343
v -0.276069 -0.173729 -0.456962
v -0.286656 -0.068107 -0.482978
v -0.095695 -0.187307 -0.493816
v -0.421830 0.193826 -0.241398
v -0.239312 0.305054 -0.017029
v -0.211061 0.308067 -0.176573
v -0.281461 0.054925 -0.437275
v -0.264901 0.225642 -0.317299
v 0.118881 -0.186800 0.575229
v 0.158718 0.012043 0.607660
v 0.265265 -0.175620 0.572417
v 0.366074 -0.050331 0.578164
v 0.262066 -0.275179 0.147974
v 0.385936 -0.192530 0.268462
v 0.421479 -0.072355 0.404298
v 0.399544 -0.057829 0.064191
v 0.365816 0.042863 0.569517
v 0.284213 0.206541 0.233381
v 0.325750 0.222404 0.021766
v 0.034627 -0.276312 -0.171156
v 0.071739 -0.188445 -0.413452
v 0.121776 -0.079131 -0.459788
v 0.313408 -0.140826 -0.126162
v 0.030376 0.334038 -0.151276
v -0.015784 0.056679 -0.481379
v 0.125709 0.259759 -0.330536
v 0.107662 0.009946 -0.489387
v 0.312048 0.185505 -0.152189
vt 0.749015 0.642008
vt 0.690412 0.733856
vt 0.648128 0.513210
vt 0.261837 0.070921
vt 0.388912 0.083272
vt 0.384959 0.196916
vt 0.597262 0.592336
vt 0.612367 0.695583
vt 0.573246 0.675952
vt 0.612367 0.863284
vt 0.054677 0.230209
vt 0.000000 0.157205
vt 0.069682 0.000000
vt 0.582547 0.135222
vt 0.733819 0.203620
vt 0.591931 0.235210
vt 0.773298 0.517221
vt 0.789866 0.390618
vt 0.905662 0.580826
vt 0.181214 0.134158
vt 0.142667 0.004324
vt 0.259270 0.470074
vt 0.221376 0.575943
vt 0.139447 0.527754
vt 0.620157 0.421354
vt 0.498428 0.441040
vt 0.479795 0.357332
vt 0.411990 0.624846
vt 0.470419 0.708579
vt 0.388912 0.749126
vt 0.160139 0.406622
vt 0.190488 0.258875
vt 0.947832 0.353098
vt 0.891796 0.249585
vt 0.946354 0.140182
vt 1.000000 0.215464
vt 0.435517 0.206476
vt 0.388912 0.311762
vt 0.814600 0.011297
vt 0.859647 0.000000
vt 0.877856 0.075345
vt 0.760938 0.304374
vt 0.498458 0.513210
vt 0.399639 0.109603
vt 0.620017 0.061026
vt 0.422677 0.891533
vt 0.490771 0.915496
vt 0.502448 1.000000
vt 0.449829 0.991208
vt 0.380242 0.321692
vt 0.388912 0.463303
vt 0.079617 0.635253
vt 0.013583 0.731228
vt 0.025798 0.635935
vt 0.313617 0.561967
vt 0.390570 0.476403
vt 0.651103 0.796171
vt 0.749015 0.776450
vt 0.740945 0.854037
vt 0.677555 0.906071
vt 0.210702 0.660858
vt 0.136317 0.643867
vt 0.197031 0.575943
vt 0.472634 0.513210
vt 0.926264 0.010975
vt 0.760938 0.015203
vt 0.654650 0.000000
vt 0.054286 0.852076
vt 0.000000 0.820351
vt 0.100431 0.848733
vt 0.760938 0.315097
vt 0.128247 0.785262
vt 0.210702 0.870286
vt 0.028362 0.364778
vt 1.000000 0.534445
vt 0.946777 0.557004
vt 0.670798 0.509646
vt 0.757628 0.405809
vt 0.612367 0.748393
vt 0.560662 0.969469
vt 0.631305 0.904153
vn -0.3890 -0.6220 0.6796
vn -0.3769 -0.1236 0.9180
vn -0.7244 -0.3256 0.6076
vn -0.6582 -0.6543 0.3725
vn -0.3788 0.7969 0.4706
vn -0.4733 0.8526 0.2215
vn -0.6590 0.6174 0.4296
vn -0.8864 0.4628 -0.0137
vn -0.9796 0.1887 -0.0687
vn -0.9732 0.2135 0.0854
vn 0.4094 -0.9112 -0.0453
vn 0.5135 -0.8215 0.2478
vn 0.4632 -0.8367 0.2920
vn -0.0559 0.8456 0.5308
vn 0.3979 0.8751 0.2755
vn 0.0471 0.9586 0.2809
vn 0.7177 0.3360 -0.6099
vn 0.9027 0.1213 -0.4129
vn 0.8361 0.0726 -0.5437
vn -0.0761 -0.9565 0.2818
vn 0.0678 -0.9435 0.3244
vn -0.0987 -0.9654 -0.2412
vn 0.0274 -0.9086 -0.4167
vn 0.4404 -0.8046 -0.3982
vn 0.1162 0.9860 -0.1200
vn -0.2315 0.9471 -0.2222
vn -0.2460 0.9640 0.1014
vn -0.9810 -0.1508 0.1222
vn -0.9055 -0.4212 0.0510
vn 0.2374 -0.9496 -0.2046
vn -0.0519 -0.9966 0.0638
vn 0.7987 -0.4532 -0.3958
vn 0.9782 -0.0765 -0.1933
vn 0.9129 -0.3842 -0.1379
vn 0.9502 0.2474 0.1895
vn 0.9535 0.0305 0.3000
vn 0.9806 0.1914 0.0420
vn 0.7086 0.7056 -0.0026
vn -0.3507 0.6349 0.6885
vn -0.1342 0.7040 0.6974
vn -0.9309 -0.3636 -0.0355
vn -0.7237 -0.3285 -0.6069
vn -0.2753 -0.9586 0.0724
vn -0.3605 -0.9099 -0.2054
vn -0.1364 0.0709 -0.9881
vn -0.0671 -0.0167 -0.9976
vn -0.2119 -0.2537 -0.9438
vn -0.2558 -0.8756 -0.4097
vn -0.5318 0.7120 -0.4585
vn -0.0405 -0.0901 0.9951
vn -0.2028 -0.1216 0.9716
vn 0.0690 -0.1462 0.9869
vn 0.1210 -0.0228 0.9924
vn -0.2638 0.7443 -0.6136
vn -0.3961 0.4298 -0.8114
vn 0.7376 -0.5945 0.3202
vn 0.0768 0.8551 0.5128
vn -0.0109 0.8058 0.5921
vn 0.3282 -0.3889 -0.8608
vn -0.0252 0.3865 -0.9219
vn -0.0493 0.7411 -0.6696
vn 0.6917 -0.5263 -0.4946
vn 0.4504 0.8779 -0.1627
vn 0.0651 0.3207 -0.9449
vn 0.5325 0.8185 -0.2156
vn -0.9858 0.1499 -0.0758
vn -0.3607 0.3750 0.8540
vn -0.6859 0.2695 -0.6760
vn 0.8632 -0.0353 -0.5036
vn -0.5823 0.3809 0.7182
vn 0.1672 0.0916 0.9817
usemtl Material.001
s 1
f 4/1/1 5/2/2 1/3/3
f 4/4/1 1/5/3 2/6/4
f 11/7/5 9/8/6 8/9/7
f 9/8/8 21/10/9 8/9/10
f 30/11/11 31/12/12 28/13/13
f 12/14/14 35/15/15 13/16/16
f 43/17/17 45/18/18 44/19/19
f 4/4/1 6/20/20 26/21/21
f 17/22/22 20/23/23 38/24/24
f 41/25/25 23/26/26 22/27/27
f 2/28/4 3/29/28 14/30/29
f 37/31/30 30/11/11 7/32/31
f 40/33/32 33/34/33 31/35/34
f 30/36/11 40/33/32 31/35/34
f 13/16/16 22/27/27 11/37/5
f 22/27/27 9/38/6 11/37/5
f 34/39/35 29/40/36 32/41/37
f 33/34/33 36/42/38 32/41/37
f 40/33/32 45/18/18 33/34/33
f 2/28/4 1/43/3 3/29/28
f 1/44/39 10/45/40 12/14/14 11/37/5
f 4/4/1 2/6/4 6/20/20
f 12/14/14 13/16/16 11/37/5
f 11/7/5 8/9/7 1/43/39
f 15/46/41 14/30/29 3/29/28 16/47/41
f 15/46/42 16/47/42 19/48/42 18/49/42
f 14/50/43 15/51/44 17/22/22
f 19/52/45 20/53/46 18/54/47
f 18/55/48 20/23/23 17/22/22
f 21/56/49 9/38/6 22/27/27 23/26/26
f 15/51/44 18/55/48 17/22/22
f 27/57/50 26/58/51 28/59/52 29/60/53
f 25/61/54 24/62/55 21/63/49
f 23/26/26 25/64/54 21/56/49
f 26/58/51 27/57/50 5/2/2
f 29/40/56 28/65/13 31/35/12 32/41/56
f 6/20/20 7/32/31 30/11/11
f 33/34/33 32/41/37 31/35/34
f 28/13/13 26/21/21 6/20/20 30/11/11
f 12/14/14 10/45/40 34/66/57 35/15/15
f 34/66/57 10/45/40 27/67/58
f 6/20/20 2/6/4 14/50/43 7/32/31
f 39/68/59 38/69/59 20/53/59 44/70/59
f 36/71/38 35/15/15 34/66/35
f 37/31/30 38/24/24 30/11/11
f 42/72/60 24/62/55 25/61/54 43/73/61
f 30/11/11 38/24/24 40/74/32
f 38/75/24 39/76/62 40/33/32
f 36/71/38 43/77/63 41/25/25
f 43/73/61 44/70/64 42/72/60
f 45/78/65 43/77/63 36/71/38
f 4/1/1 26/58/51 5/2/2
f 19/52/45 44/70/64 20/53/46
f 17/22/22 38/24/24 37/31/30
f 23/26/26 41/25/25 43/77/61 25/64/54
f 13/16/16 35/15/15 36/71/38 41/25/25
f 14/50/43 17/22/22 7/32/31
f 21/10/9 16/47/66 3/29/28 8/9/10
f 1/43/3 8/9/10 3/29/28
f 1/3/39 5/2/67 10/79/40
f 16/47/68 21/10/49 24/80/55 19/48/68
f 24/62/55 42/72/60 19/52/45
f 40/33/32 39/76/69 44/19/19 45/18/18
f 27/57/70 10/79/40 5/2/67
f 29/60/53 34/81/71 27/57/50
f 32/41/37 36/42/38 34/39/35
f 45/18/18 36/42/38 33/34/33
f 42/72/60 44/70/64 19/52/45
f 17/22/22 37/31/30 7/32/31
f 41/25/25 22/27/27 13/16/16
